<?xml version="1.0" encoding="UTF-8"?>
<svg width="80px" height="12px" viewBox="0 0 80 12" version="1.1" xmlns="http://www.w3.org/2000/svg" xmlns:xlink="http://www.w3.org/1999/xlink">
    <!-- Generator: Sketch 40.3 (33839) - http://www.bohemiancoding.com/sketch -->
    <title>logo-connected</title>
    <desc>Created with Sketch.</desc>
    <defs></defs>
    <g id="Page-1" stroke="none" stroke-width="1" fill="none" fill-rule="evenodd">
        <g id="logo-connected">
            <path d="M1.67306792,1.970625 C2.69723256,0.900057338 4.11156838,0.291120105 5.59250585,0.283125 C8.18360656,0.283125 10.2238876,1.903125 10.8721311,4.464375 L9.25339578,4.464375 C8.65386417,2.761875 7.2618267,1.903125 5.59250585,1.903125 C4.53681162,1.90934784 3.52984067,2.34850517 2.80655738,3.118125 C1.2517643,4.73958754 1.2517643,7.29978746 2.80655738,8.92125 C3.75638167,9.91962281 5.16175641,10.342945 6.50441896,10.0351073 C7.84708151,9.72726965 8.92814594,8.73387144 9.34894614,7.42125 L10.9526932,7.42125 C10.3044496,9.999375 8.2323185,11.74875 5.59250585,11.74875 C4.11003151,11.7481677 2.69291154,11.1380318 1.67306792,10.06125 C-0.485721871,7.79199056 -0.485721871,4.22675944 1.67306792,1.9575 L1.67306792,1.970625 Z" id="Shape" fill="#005C7D"></path>
            <path d="M12.9798595,1.905 C14.0572972,0.805807002 15.5312147,0.186498037 17.0697892,0.186498037 C18.6083638,0.186498037 20.0822813,0.805807002 21.159719,1.905 C23.4051199,4.17695702 23.4051199,7.83429298 21.159719,10.10625 C20.0822813,11.205443 18.6083638,11.824752 17.0697892,11.824752 C15.5312147,11.824752 14.0572972,11.205443 12.9798595,10.10625 C10.7344586,7.83429298 10.7344586,4.17695702 12.9798595,1.905 L12.9798595,1.905 Z M19.9906323,3.073125 C19.2141946,2.29107255 18.160119,1.84821715 17.058548,1.84125 C15.9663043,1.84556444 14.9217354,2.28953209 14.1601874,3.073125 C13.382552,3.85098996 12.9456493,4.90622808 12.9456493,6.0065625 C12.9456493,7.10689692 13.382552,8.16213504 14.1601874,8.94 C14.9217354,9.72359291 15.9663043,10.1675606 17.058548,10.171875 C18.7316958,10.1564941 20.2335213,9.14141436 20.8727141,7.59389062 C21.5119069,6.04636689 21.1645878,4.26631826 19.9906323,3.073125 L19.9906323,3.073125 Z" id="Shape" fill="#005C7D"></path>
            <polygon id="Shape" fill="#00A6E5" points="38.7915691 10.0425 44.0543326 10.0425 44.0543326 11.679375 37.1391101 11.679375 37.1391101 0.34875 44.0393443 0.34875 44.0393443 1.985625 38.7934426 1.985625 38.7934426 5.173125 42.5161593 5.173125 42.5161593 6.826875 38.7915691 6.826875"></polygon>
            <path d="M45.1128806,1.970625 C46.1370452,0.900057338 47.551381,0.291120105 49.0323185,0.283125 C51.6234192,0.283125 53.6637002,1.903125 54.3119438,4.464375 L52.6932084,4.464375 C52.0936768,2.761875 50.7016393,1.903125 49.0323185,1.903125 C47.9766243,1.90934784 46.9696533,2.34850517 46.24637,3.118125 C44.6915769,4.73958754 44.6915769,7.29978746 46.24637,8.92125 C47.1961943,9.91962281 48.6015691,10.342945 49.9442316,10.0351073 C51.2868942,9.72726965 52.3679586,8.73387144 52.7887588,7.42125 L54.3925059,7.42125 C53.7442623,9.999375 51.6721311,11.74875 49.0323185,11.74875 C47.5498442,11.7481677 46.1327242,11.1380318 45.1128806,10.06125 C42.9540908,7.79199056 42.9540908,4.22675944 45.1128806,1.9575 L45.1128806,1.970625 Z" id="Shape" fill="#00A6E5"></path>
            <polygon id="Shape" fill="#00A6E5" points="57.0529274 11.68875 57.0529274 1.85625 53.6187354 1.85625 53.6187354 0.35625 62.1058548 0.35625 62.1058548 1.85625 58.6885246 1.85625 58.6885246 11.686875"></polygon>
            <polygon id="Shape" fill="#005C7D" points="31.0613583 8.3325 29.3133489 6.181875 28.828103 5.58375 28.828103 5.58375 27.1906323 3.57 27.1906323 3.57 26.7053864 2.97375 24.565808 0.34125 23.3030445 0.34875 23.3030445 0.53625 23.3030445 11.679375 23.3030445 11.679375 24.9386417 11.679375 24.9386417 11.679375 24.9386417 3.76125 26.7053864 5.9325 27.1906323 6.530625 27.1906323 6.530625 28.828103 8.5425 28.828103 8.5425 29.3133489 9.13875 31.3854801 11.679375 32.6819672 11.679375 32.6819672 11.679375 32.6819672 10.325625 32.6819672 10.325625 31.0613583 8.334375"></polygon>
            <polygon id="Shape" fill="#005C7D" points="32.6819672 0.34125 32.6819672 0.34125 31.0613583 0.34125 31.0613583 0.34125 31.0613583 1.805625 31.0613583 1.805625 32.6819672 3.79875"></polygon>
            <polygon id="Shape" fill="#00A6E5" points="27.1906323 11.679375 27.1906323 11.679375 28.828103 11.679375 28.828103 11.679375 28.828103 10.284375 28.828103 10.284375 27.1906323 8.274375"></polygon>
            <polygon id="Shape" fill="#00A6E5" points="34.9489461 0.34125 34.9489461 0.34125 34.9489461 8.3325 33.1672131 6.13875 32.6819672 5.540625 32.6819672 5.540625 31.0613583 3.549375 31.0613583 3.549375 30.5761124 2.95125 28.4552693 0.34125 27.1906323 0.34875 27.1906323 0.34875 27.1906323 1.7475 27.1906323 1.7475 28.828103 3.76125 28.828103 3.76125 30.5761124 5.911875 31.0613583 6.508125 31.0613583 6.508125 32.6819672 8.499375 32.6819672 8.50125 33.1672131 9.0975 35.2730679 11.679375 36.569555 11.679375 36.569555 11.679375 36.569555 0.34125 36.569555 0.34125"></polygon>
            <polygon id="Shape" fill="#00A6E5" points="64.440281 10.074375 69.7311475 10.074375 69.7311475 11.679375 62.7803279 11.679375 62.7803279 0.34875 69.7124122 0.34875 69.7124122 1.978125 64.440281 1.978125 64.440281 5.188125 68.1873536 5.188125 68.1873536 6.849375 64.440281 6.849375"></polygon>
            <path d="M74.3681499,0.34875 C78.0702576,0.34875 79.9437939,3.185625 79.9437939,6.0225 C79.9437939,8.859375 78.0702576,11.679375 74.3681499,11.679375 L70.3025761,11.679375 L70.3025761,0.34875 L74.3681499,0.34875 Z M74.3681499,10.0425 C76.9911007,10.0425 78.3194379,8.0325 78.3194379,6.0225 C78.3194379,4.0125 76.9911007,1.985625 74.3681499,1.985625 L71.9325527,1.985625 L71.9325527,10.048125 L74.3681499,10.0425 Z" id="Shape" fill="#00A6E5"></path>
        </g>
    </g>
</svg>