<?xml version="1.0" encoding="UTF-8" standalone="no"?>
<!DOCTYPE svg PUBLIC "-//W3C//DTD SVG 1.1//EN" "http://www.w3.org/Graphics/SVG/1.1/DTD/svg11.dtd">
<svg width="100%" height="100%" viewBox="0 0 150 23" version="1.1" xmlns="http://www.w3.org/2000/svg" xmlns:xlink="http://www.w3.org/1999/xlink" xml:space="preserve" style="fill-rule:evenodd;clip-rule:evenodd;stroke-linejoin:round;stroke-miterlimit:1.41421;">
    <g id="logo-connected" transform="matrix(0.549451,0,0,0.560976,0,0)">
        <path id="Shape" d="M5.709,6.725C9.204,3.071 14.031,0.993 19.084,0.966C27.927,0.966 34.889,6.494 37.101,15.235L31.577,15.235C29.531,9.425 24.781,6.494 19.084,6.494C15.482,6.516 12.046,8.014 9.577,10.641C4.272,16.174 4.272,24.911 9.577,30.444C12.819,33.851 17.614,35.295 22.196,34.245C26.778,33.194 30.467,29.804 31.903,25.325L37.376,25.325C35.164,34.123 28.093,40.093 19.084,40.093C14.025,40.091 9.19,38.009 5.709,34.334C-1.658,26.59 -1.658,14.424 5.709,6.68L5.709,6.725Z" style="fill:rgb(0,92,125);"/>
        <path id="Shape1" d="M44.294,6.501C47.971,2.75 53,0.636 58.251,0.636C63.501,0.636 68.531,2.75 72.208,6.501C79.87,14.254 79.87,26.735 72.208,34.488C68.531,38.239 63.501,40.352 58.251,40.352C53,40.352 47.971,38.239 44.294,34.488C36.631,26.735 36.631,14.254 44.294,6.501ZM68.218,10.487C65.568,7.818 61.971,6.307 58.212,6.283C54.485,6.298 50.92,7.813 48.322,10.487C45.668,13.142 44.177,16.743 44.177,20.497C44.177,24.252 45.668,27.853 48.322,30.508C50.92,33.182 54.485,34.697 58.212,34.712C63.922,34.659 69.047,31.195 71.228,25.914C73.409,20.633 72.224,14.559 68.218,10.487Z" style="fill:rgb(0,92,125);"/>
        <path id="Shape2" d="M132.376,34.27L150.335,34.27L150.335,39.856L126.737,39.856L126.737,1.19L150.284,1.19L150.284,6.776L132.383,6.776L132.383,17.653L145.086,17.653L145.086,23.297L132.376,23.297L132.376,34.27Z" style="fill:rgb(0,166,229);"/>
        <path id="Shape3" d="M153.948,6.725C157.443,3.071 162.269,0.993 167.323,0.966C176.165,0.966 183.127,6.494 185.34,15.235L179.816,15.235C177.77,9.425 173.019,6.494 167.323,6.494C163.72,6.516 160.284,8.014 157.816,10.641C152.51,16.174 152.51,24.911 157.816,30.444C161.057,33.851 165.853,35.295 170.435,34.245C175.017,33.194 178.706,29.804 180.142,25.325L185.614,25.325C183.402,34.123 176.331,40.093 167.323,40.093C162.264,40.091 157.428,38.009 153.948,34.334C146.581,26.59 146.581,14.424 153.948,6.68L153.948,6.725Z" style="fill:rgb(0,166,229);"/>
        <path id="Shape4" d="M194.693,39.888L194.693,6.334L182.974,6.334L182.974,1.216L211.936,1.216L211.936,6.334L200.275,6.334L200.275,39.881L194.693,39.888Z" style="fill:rgb(0,166,229);"/>
        <path id="Shape5" d="M105.997,28.435L100.032,21.096L98.376,19.055L92.788,12.183L91.132,10.148L83.831,1.165L79.522,1.19L79.522,39.856L85.103,39.856L85.103,12.835L91.132,20.245L92.788,22.286L98.376,29.151L100.032,31.186L107.103,39.856L111.527,39.856L111.527,35.236L105.997,28.441L105.997,28.435Z" style="fill:rgb(0,92,125);"/>
        <path id="Shape6" d="M111.527,1.165L105.997,1.165L105.997,6.162L111.527,12.963L111.527,1.165Z" style="fill:rgb(0,92,125);"/>
        <path id="Shape7" d="M92.788,39.856L98.376,39.856L98.376,35.095L92.788,28.236L92.788,39.856Z" style="fill:rgb(0,166,229);"/>
        <path id="Shape8" d="M119.263,1.165L119.263,28.435L113.183,20.948L111.527,18.907L105.997,12.112L104.341,10.071L97.104,1.165L92.788,1.19L92.788,5.963L98.376,12.835L104.341,20.174L105.997,22.209L111.527,29.004L111.527,29.011L113.183,31.045L120.369,39.856L124.794,39.856L124.794,1.165L119.263,1.165Z" style="fill:rgb(0,166,229);"/>
        <path id="Shape9" d="M219.902,34.379L237.958,34.379L237.958,39.856L214.238,39.856L214.238,1.19L237.894,1.19L237.894,6.75L219.902,6.75L219.902,17.704L232.689,17.704L232.689,23.373L219.902,23.373L219.902,34.379Z" style="fill:rgb(0,166,229);"/>
        <path id="Shape10" d="M253.781,1.19C266.415,1.19 272.808,10.871 272.808,20.552C272.808,30.233 266.415,39.856 253.781,39.856L239.908,39.856L239.908,1.19L253.781,1.19ZM253.781,34.27C262.732,34.27 267.265,27.411 267.265,20.552C267.265,13.693 262.732,6.776 253.781,6.776L245.47,6.776L245.47,34.289L253.781,34.27Z" style="fill:rgb(0,166,229);"/>
    </g>
</svg>
