<svg id="Layer_1" data-name="Layer 1" xmlns="http://www.w3.org/2000/svg" viewBox="0 0 560.56 520.58"><defs><style>.cls-1{fill:#005c7d;}.cls-2{fill:#00a6e5;}.cls-3{fill:#fff;}</style></defs><title>ConnectedLogoFinal</title><rect x="289.27" y="367.76" width="271.29" height="152.83"/><path class="cls-1" d="M182.23,273.52a29.18,29.18,0,0,1,20.92-9c13.83,0,24.72,8.64,28.18,22.3h-8.64c-3.2-9.08-10.63-13.66-19.54-13.66a20.58,20.58,0,0,0-14.87,6.48,22.35,22.35,0,0,0,0,30.95,20.83,20.83,0,0,0,34.92-8h8.56c-3.46,13.75-14.52,23.08-28.61,23.08a28.84,28.84,0,0,1-20.92-9,31.34,31.34,0,0,1,0-43.22Z" transform="translate(-115.3 -264.01)"/><path class="cls-1" d="M242.58,273.17a30.58,30.58,0,0,1,43.66,0,31.1,31.1,0,0,1,0,43.74,30.58,30.58,0,0,1-43.66,0,31.1,31.1,0,0,1,0-43.74ZM280,279.4a22.26,22.26,0,0,0-15.65-6.57,21.7,21.7,0,0,0-15.47,6.57,22.12,22.12,0,0,0,0,31.29,21.7,21.7,0,0,0,15.47,6.57A22.25,22.25,0,0,0,280,279.4Z" transform="translate(-115.3 -264.01)"/><path class="cls-2" d="M380.35,316.57h28.09v8.73H371.53V264.87h36.83v8.73h-28v17h19.87v8.82H380.35Z" transform="translate(-115.3 -264.01)"/><path class="cls-2" d="M414.09,273.52a29.18,29.18,0,0,1,20.92-9c13.83,0,24.72,8.64,28.18,22.3h-8.64c-3.2-9.08-10.63-13.66-19.54-13.66a20.58,20.58,0,0,0-14.87,6.48,22.35,22.35,0,0,0,0,30.95,20.83,20.83,0,0,0,34.92-8h8.56c-3.46,13.75-14.52,23.08-28.61,23.08a28.84,28.84,0,0,1-20.92-9,31.34,31.34,0,0,1,0-43.22Z" transform="translate(-115.3 -264.01)"/><path class="cls-2" d="M477.82,325.35V272.91H459.49v-8h45.3v8H486.55v52.43Z" transform="translate(-115.3 -264.01)"/><polygon class="cls-1" points="223.79 43.44 214.46 31.97 211.87 28.78 211.87 28.78 203.13 18.04 203.13 18.04 200.54 14.86 189.12 0.82 182.38 0.86 182.38 1.86 182.38 61.29 182.38 61.29 191.11 61.29 191.11 61.29 191.11 19.06 200.54 30.64 203.13 33.83 203.13 33.83 211.87 44.56 211.87 44.56 214.46 47.74 225.52 61.29 232.44 61.29 232.44 61.29 232.44 54.07 232.44 54.07 223.79 43.45 223.79 43.44"/><polygon class="cls-1" points="232.44 0.82 232.44 0.82 223.79 0.82 223.79 0.82 223.79 8.63 223.79 8.63 232.44 19.26 232.44 0.82"/><polygon class="cls-2" points="203.13 61.29 203.13 61.29 211.87 61.29 211.87 61.29 211.87 53.85 211.87 53.85 203.13 43.13 203.13 61.29"/><polygon class="cls-2" points="244.54 0.82 244.54 0.82 244.54 43.44 235.03 31.74 232.44 28.55 232.44 28.55 223.79 17.93 223.79 17.93 221.2 14.74 209.88 0.82 203.13 0.86 203.13 0.86 203.13 8.32 203.13 8.32 211.87 19.06 211.87 19.06 221.2 30.53 223.79 33.71 223.79 33.71 232.44 44.33 232.44 44.34 235.03 47.52 246.27 61.29 253.19 61.29 253.19 61.29 253.19 0.82 253.19 0.82 244.54 0.82"/><path class="cls-2" d="M517.25,316.74h28.24v8.56h-37.1V264.87h37v8.69H517.25v17.12h20v8.86h-20Z" transform="translate(-115.3 -264.01)"/><path class="cls-2" d="M570.24,264.87C590,264.87,600,280,600,295.13S590,325.3,570.24,325.3h-21.7V264.87Zm0,51.7c14,0,21.09-10.72,21.09-21.44s-7.09-21.53-21.09-21.53h-13v43Z" transform="translate(-115.3 -264.01)"/><path d="M118.83,697.21a11.91,11.91,0,0,1,8.54-3.67,11.56,11.56,0,0,1,11.51,9.11h-3.53a8,8,0,0,0-8-5.58,8.4,8.4,0,0,0-6.07,2.65,9.12,9.12,0,0,0,0,12.64,8.5,8.5,0,0,0,14.26-3.25h3.49a11.92,11.92,0,0,1-11.68,9.42,11.78,11.78,0,0,1-8.54-3.67,12.79,12.79,0,0,1,0-17.65Z" transform="translate(-115.3 -264.01)"/><path d="M143.47,697.07a12.49,12.49,0,0,1,17.82,0,12.7,12.7,0,0,1,0,17.86,12.49,12.49,0,0,1-17.82,0,12.7,12.7,0,0,1,0-17.86Zm15.28,2.54a9.09,9.09,0,0,0-6.39-2.68,8.86,8.86,0,0,0-6.32,2.68,9,9,0,0,0,0,12.78,8.86,8.86,0,0,0,6.32,2.68,9.09,9.09,0,0,0,6.39-15.46Z" transform="translate(-115.3 -264.01)"/><path d="M200.13,714.79H211.6v3.56H196.52V693.68h15v3.56H200.13v7h8.11v3.6h-8.11Z" transform="translate(-115.3 -264.01)"/><path d="M214.72,697.21a11.91,11.91,0,0,1,8.54-3.67,11.56,11.56,0,0,1,11.51,9.11h-3.53a8,8,0,0,0-8-5.58,8.4,8.4,0,0,0-6.07,2.65,9.12,9.12,0,0,0,0,12.64,8.5,8.5,0,0,0,14.26-3.25h3.49a11.92,11.92,0,0,1-11.68,9.42,11.78,11.78,0,0,1-8.54-3.67,12.79,12.79,0,0,1,0-17.65Z" transform="translate(-115.3 -264.01)"/><path d="M240.74,718.46V697h-7.48v-3.32h18.49V697H244.3v21.5Z" transform="translate(-115.3 -264.01)"/><polygon points="67.57 447.06 63.76 442.37 62.7 441.07 62.7 441.07 59.14 436.69 59.14 436.69 58.08 435.39 53.42 429.66 50.67 429.62 50.67 429.62 50.67 454.36 50.67 454.36 54.23 454.36 54.23 454.36 54.23 437.1 58.08 441.83 59.14 443.13 59.14 443.13 62.7 447.51 62.7 447.51 63.76 448.81 68.28 454.36 71.1 454.36 71.1 454.36 71.1 451.4 71.1 451.4 67.57 447.06 67.57 447.06"/><polygon points="71.1 429.66 71.1 429.66 67.57 429.66 67.57 429.66 67.57 432.84 67.57 432.84 71.1 437.18 71.1 429.66"/><polygon points="59.14 454.36 59.14 454.36 62.7 454.36 62.7 454.36 62.7 451.31 62.7 451.31 59.14 446.93 59.14 454.36"/><polygon points="76.05 429.66 76.05 429.66 76.05 447.06 72.16 442.28 71.1 440.98 71.1 440.98 67.57 436.64 67.57 436.64 66.52 435.34 61.89 429.66 59.14 429.62 59.14 429.62 59.14 432.72 59.14 432.72 62.7 437.1 62.7 437.1 66.52 441.79 67.57 443.09 67.57 443.09 71.1 447.42 71.1 447.42 72.16 448.72 76.75 454.36 79.58 454.36 79.58 454.36 79.58 429.66 79.58 429.66 76.05 429.66"/><path d="M256.84,714.86h11.53v3.58H253.22V693.65h15.11v3.58H256.84v7H265v3.62h-8.17Z" transform="translate(-115.3 -264.01)"/><path d="M278.52,693.65c8.12,0,12.2,6.21,12.2,12.41s-4.08,12.38-12.2,12.38h-8.9V693.65Zm0,21.21c5.75,0,8.65-4.4,8.65-8.8s-2.91-8.83-8.65-8.83h-5.32v17.63Z" transform="translate(-115.3 -264.01)"/><path class="cls-3" d="M456.61,697.21a11.91,11.91,0,0,1,8.54-3.67,11.56,11.56,0,0,1,11.51,9.11h-3.53a8,8,0,0,0-8-5.58,8.4,8.4,0,0,0-6.07,2.65,9.12,9.12,0,0,0,0,12.64,8.5,8.5,0,0,0,14.26-3.25h3.49a11.92,11.92,0,0,1-11.68,9.42,11.78,11.78,0,0,1-8.54-3.67,12.79,12.79,0,0,1,0-17.65Z" transform="translate(-115.3 -264.01)"/><path class="cls-3" d="M481.25,697.07a12.49,12.49,0,0,1,17.82,0,12.7,12.7,0,0,1,0,17.86,12.49,12.49,0,0,1-17.82,0,12.7,12.7,0,0,1,0-17.86Zm15.28,2.54a9.09,9.09,0,0,0-6.39-2.68,8.86,8.86,0,0,0-6.32,2.68,9,9,0,0,0,0,12.78,8.86,8.86,0,0,0,6.32,2.68,9.09,9.09,0,0,0,6.39-15.46Z" transform="translate(-115.3 -264.01)"/><path class="cls-3" d="M537.91,714.79h11.47v3.56H534.31V693.68h15v3.56H537.91v7H546v3.6h-8.11Z" transform="translate(-115.3 -264.01)"/><path class="cls-3" d="M552.5,697.21a11.91,11.91,0,0,1,8.54-3.67,11.56,11.56,0,0,1,11.51,9.11H569a8,8,0,0,0-8-5.58,8.4,8.4,0,0,0-6.07,2.65,9.12,9.12,0,0,0,0,12.64,8.5,8.5,0,0,0,14.26-3.25h3.49A11.92,11.92,0,0,1,561,718.53a11.78,11.78,0,0,1-8.54-3.67,12.79,12.79,0,0,1,0-17.65Z" transform="translate(-115.3 -264.01)"/><path class="cls-3" d="M578.52,718.46V697H571v-3.32h18.49V697h-7.45v21.5Z" transform="translate(-115.3 -264.01)"/><polygon class="cls-3" points="405.36 447.06 401.55 442.37 400.49 441.07 400.49 441.07 396.92 436.69 396.92 436.69 395.86 435.39 391.2 429.66 388.45 429.62 388.45 429.62 388.45 454.36 388.45 454.36 392.01 454.36 392.01 454.36 392.01 437.1 395.86 441.83 396.92 443.13 396.92 443.13 400.49 447.51 400.49 447.51 401.55 448.81 406.06 454.36 408.89 454.36 408.89 454.36 408.89 451.4 408.89 451.4 405.36 447.06 405.36 447.06"/><polygon class="cls-3" points="408.89 429.66 408.89 429.66 405.36 429.66 405.36 429.66 405.36 432.84 405.36 432.84 408.89 437.18 408.89 429.66"/><polygon class="cls-3" points="396.92 454.36 396.92 454.36 400.49 454.36 400.49 454.36 400.49 451.31 400.49 451.31 396.92 446.93 396.92 454.36"/><polygon class="cls-3" points="413.83 429.66 413.83 429.66 413.83 447.06 409.95 442.28 408.89 440.98 408.89 440.98 405.36 436.64 405.36 436.64 404.3 435.34 399.68 429.66 396.92 429.62 396.92 429.62 396.92 432.72 396.92 432.72 400.49 437.1 400.49 437.1 404.3 441.79 405.36 443.09 405.36 443.09 408.89 447.42 408.89 447.42 409.95 448.72 414.54 454.36 417.36 454.36 417.36 454.36 417.36 429.66 417.36 429.66 413.83 429.66"/><path class="cls-3" d="M594.62,714.86h11.53v3.58H591V693.65h15.11v3.58H594.62v7h8.17v3.62h-8.17Z" transform="translate(-115.3 -264.01)"/><path class="cls-3" d="M616.3,693.65c8.12,0,12.2,6.21,12.2,12.41s-4.08,12.38-12.2,12.38h-8.9V693.65Zm0,21.21c5.75,0,8.65-4.4,8.65-8.8s-2.91-8.83-8.65-8.83H611v17.63Z" transform="translate(-115.3 -264.01)"/></svg>