<?xml version="1.0" encoding="UTF-8" standalone="no"?>
<!DOCTYPE svg PUBLIC "-//W3C//DTD SVG 1.1//EN" "http://www.w3.org/Graphics/SVG/1.1/DTD/svg11.dtd">
<svg width="100%" height="100%" viewBox="0 0 273 273" version="1.1" xmlns="http://www.w3.org/2000/svg" xmlns:xlink="http://www.w3.org/1999/xlink" xml:space="preserve" style="fill-rule:evenodd;clip-rule:evenodd;stroke-linejoin:round;stroke-miterlimit:1.41421;">
    <g transform="matrix(3.59211,0,0,3.59211,-39.5132,-53.8816)">
        <path d="M79.248,50.228C76.842,50.228 74.793,51.734 73.978,53.853L54.191,51.905C54.064,50.896 53.716,49.959 53.195,49.139L64.955,37.279C66.649,38.526 68.735,39.272 71,39.272C76.644,39.272 81.22,34.696 81.22,29.052C81.22,23.408 76.644,18.832 71,18.832C65.356,18.832 60.78,23.408 60.78,29.052C60.78,31.348 61.546,33.46 62.824,35.166L51.063,47.028C50.027,46.382 48.808,46.002 47.498,46.002C46.814,46.002 46.154,46.106 45.532,46.295L39.232,35.28C41.612,33.405 43.145,30.504 43.145,27.239C43.144,21.584 38.56,17 32.906,17C27.252,17 22.667,21.584 22.667,27.239C22.667,32.894 27.251,37.478 32.906,37.478C34.221,37.478 35.474,37.221 36.628,36.77L42.932,47.791C41.591,49.025 40.746,50.789 40.746,52.755C40.746,53.091 40.779,53.419 40.826,53.742L34.331,56.27C32.388,52.747 28.64,50.358 24.332,50.358C18.028,50.358 12.918,55.468 12.918,61.772C12.918,68.076 18.028,73.186 24.332,73.186C30.636,73.186 35.746,68.076 35.746,61.772C35.746,60.839 35.622,59.938 35.411,59.07L41.907,56.541C42.445,57.335 43.152,58.001 43.97,58.505L36.501,76.734C36.475,76.797 36.461,76.862 36.444,76.927C36.213,76.897 35.985,76.857 35.745,76.857C32.772,76.857 30.361,79.267 30.361,82.241C30.361,85.215 32.771,87.625 35.745,87.625C38.719,87.625 41.129,85.215 41.129,82.241C41.129,80.563 40.345,79.083 39.142,78.096C39.188,78.023 39.242,77.955 39.276,77.872L46.814,59.473C47.039,59.496 47.266,59.507 47.497,59.507C48.854,59.507 50.115,59.103 51.173,58.414L56.112,64.819C54.776,66.45 53.973,68.535 53.973,70.808C53.973,76.034 58.209,80.27 63.435,80.27C68.661,80.27 72.897,76.034 72.897,70.808C72.897,65.582 68.661,61.346 63.435,61.346C61.568,61.346 59.832,61.894 58.365,62.828L53.278,56.23C53.531,55.811 53.741,55.363 53.899,54.891L73.685,56.838C74.141,59.501 76.455,61.529 79.248,61.529C82.369,61.529 84.899,58.999 84.899,55.878C84.899,52.757 82.369,50.228 79.248,50.228ZM71,21.833C74.981,21.833 78.22,25.072 78.22,29.053C78.22,33.034 74.981,36.273 71,36.273C67.019,36.273 63.78,33.034 63.78,29.053C63.78,25.072 67.019,21.833 71,21.833ZM32.906,34.478C28.914,34.478 25.667,31.231 25.667,27.239C25.667,23.247 28.914,20 32.906,20C36.898,20 40.145,23.247 40.145,27.239C40.144,31.23 36.897,34.478 32.906,34.478ZM24.332,70.184C19.693,70.184 15.918,66.41 15.918,61.77C15.918,57.131 19.692,53.356 24.332,53.356C28.971,53.356 32.746,57.13 32.746,61.77C32.746,66.41 28.972,70.184 24.332,70.184ZM47.498,56.506C45.429,56.506 43.746,54.823 43.746,52.754C43.746,50.685 45.429,49.002 47.498,49.002C49.567,49.002 51.25,50.685 51.25,52.754C51.25,54.823 49.567,56.506 47.498,56.506ZM63.436,64.345C66.999,64.345 69.898,67.244 69.898,70.807C69.898,74.37 66.999,77.269 63.436,77.269C59.873,77.269 56.974,74.37 56.974,70.807C56.974,67.244 59.873,64.345 63.436,64.345Z" style="fill:white;fill-rule:nonzero;"/>
    </g>
</svg>
